<?xml version="1.0" standalone="no"?>
<!DOCTYPE svg PUBLIC "-//W3C//DTD SVG 20010904//EN"
 "http://www.w3.org/TR/2001/REC-SVG-20010904/DTD/svg10.dtd">
<svg version="1.0" xmlns="http://www.w3.org/2000/svg"
 width="267.000000pt" height="267.000000pt" viewBox="0 0 267.000000 267.000000"
 preserveAspectRatio="xMidYMid meet">
<metadata>
Created by potrace 1.11, written by Peter Selinger 2001-2013
</metadata>
<g transform="translate(0.000000,267.000000) scale(0.100000,-0.100000)"
fill="#000000" stroke="none">
<path d="M591 2656 c-28 -15 -50 -52 -51 -82 0 -21 -6 -22 -102 -26 -85 -3
-113 -8 -160 -30 -75 -35 -138 -94 -179 -170 l-34 -63 -3 -217 -3 -218 1275 0
1276 0 0 188 c0 215 -10 265 -67 350 -20 29 -58 68 -85 88 -48 36 -148 74
-192 74 -17 0 -24 9 -34 45 -20 75 -96 96 -142 38 -11 -14 -20 -39 -20 -54 l0
-29 -680 0 -680 0 0 29 c0 60 -70 105 -119 77z"/>
<path d="M1164 1656 c-270 -70 -459 -256 -525 -516 -18 -70 -20 -103 -16 -199
3 -64 12 -143 21 -176 47 -176 172 -329 327 -404 121 -58 205 -74 359 -68 133
5 264 29 293 55 24 21 22 74 -3 97 -19 17 -26 18 -78 6 -110 -24 -198 -33
-262 -27 -314 28 -505 236 -503 546 1 177 54 303 174 414 146 135 359 200 535
163 225 -48 354 -211 354 -448 0 -85 -26 -187 -65 -255 -29 -50 -105 -121
-139 -130 -85 -21 -85 23 0 301 77 252 84 288 59 315 -34 38 -109 19 -128 -31
-4 -10 -9 -8 -21 8 -9 13 -38 35 -64 50 -41 25 -57 28 -133 28 -78 0 -91 -3
-160 -37 -166 -82 -273 -266 -273 -468 0 -134 52 -228 152 -277 104 -51 247
-30 328 48 l31 30 22 -36 c61 -104 238 -81 379 50 219 203 227 608 15 820 -65
65 -188 131 -281 150 -107 23 -289 19 -398 -9z m281 -435 c40 -25 75 -59 75
-73 0 -6 -19 -78 -42 -160 -27 -98 -51 -162 -69 -187 -55 -77 -193 -112 -256
-65 -46 34 -58 70 -57 164 1 136 58 251 153 311 56 36 147 41 196 10z"/>
<path d="M2110 418 c0 -162 -70 -294 -205 -384 -60 -41 -46 -42 71 -8 124 35
249 92 347 157 91 61 229 198 266 265 l23 43 -53 -28 c-51 -27 -61 -28 -179
-27 -124 0 -141 4 -252 49 -16 6 -18 0 -18 -67z"/>
</g>
</svg>
