<svg xmlns="http://www.w3.org/2000/svg" id="Layer_1" width="575.7" height="63.9">
  <style>
    .logotypelayer0{fill:#000} .logotypelayer1{fill:#FFFFFF;} .logotypelayer2{fill:#AA1E22;} .logotypelayer3{fill:#8E1921;} .logotypelayer4{fill:#939598;} .logotypelayer5{fill:#D1D3D4;} .logotypelayer6{fill:none;logotypelayerroke:#8C1821;logotypelayerroke-width:3;logotypelayerroke-miterlimit:10;}
  </style>
  <path d="M8.5 60.3c-.5-.5-.7-1-.7-1.5V10.4c0-.5.2-1.1.6-1.5.4-.5.9-.7 1.5-.7H38c.7 0 1.2.2 1.6.5s.6.8.6 1.3c0 .6-.2 1-.6 1.4s-.9.5-1.6.5H12.4V32H37c1.4 0 2.2.6 2.2 1.8 0 .5-.2 1-.6 1.3-.4.3-.9.5-1.6.5H12.4v21.8h26.8c.7 0 1.2.2 1.6.5.4.3.5.8.5 1.3 0 .6-.2 1-.5 1.4-.4.3-.9.5-1.6.5H10c-.5-.1-1-.3-1.5-.8zm59.3-.3c-.7-.6-1.2-1.3-1.6-2.1L47.7 11.5c-.1-.3-.2-.6-.2-.8 0-.6.2-1.1.7-1.5.5-.4 1-.7 1.7-.7.9 0 1.6.5 1.9 1.4l18 45.6 18-45.6c.4-.9 1-1.4 1.9-1.4.6 0 1.1.2 1.6.6.5.4.7.9.7 1.5 0 .2-.1.5-.2.8L73.5 57.9c-.4.8-.9 1.5-1.6 2.1-.7.6-1.4.9-2 .9-.8 0-1.4-.3-2.1-.9zm32.3.3c-.5-.5-.7-1-.7-1.5V10.4c0-.5.2-1.1.6-1.5.4-.5.9-.7 1.5-.7h28.1c.7 0 1.2.2 1.6.5s.6.8.6 1.3c0 .6-.2 1-.6 1.4s-.9.5-1.6.5H104V32h24.6c1.4 0 2.2.6 2.2 1.8 0 .5-.2 1-.6 1.3-.4.3-.9.5-1.6.5H104v21.8h26.8c.7 0 1.2.2 1.6.5.4.3.5.8.5 1.3 0 .6-.2 1-.5 1.4-.4.3-.9.5-1.6.5h-29.1c-.6-.1-1.1-.3-1.6-.8zm45.4.2c-.4-.4-.6-.9-.6-1.6V11.7c0-1.1.3-1.9.8-2.5.5-.6 1.2-.9 2.2-.9 1.3 0 2.6 1 4 3l29.5 44V10.4c0-.7.2-1.3.6-1.7.4-.4.9-.6 1.6-.6.6 0 1.1.2 1.5.6.4.4.6.9.6 1.6v47.1c0 1.1-.3 1.9-1 2.5-.7.6-1.5.9-2.5.9-.6 0-1.2-.1-1.6-.3-.4-.2-.8-.6-1.2-1.2l-30.1-44.7v44c0 .7-.2 1.2-.6 1.6-.4.4-.9.6-1.5.6-.8.2-1.3 0-1.7-.3zm66.6-.1c-.4-.4-.7-.9-.7-1.6V11.9h-15.8c-.7 0-1.2-.2-1.6-.5s-.6-.8-.6-1.3.2-1 .6-1.3.9-.5 1.6-.5h35.8c1.5 0 2.2.6 2.2 1.9 0 .5-.2.9-.6 1.3-.4.3-.9.5-1.6.5h-15.3v46.9c0 .7-.2 1.2-.7 1.6-.5.4-1 .6-1.6.6-.7-.1-1.3-.3-1.7-.7zm28.8-5.3c-.2-.2-.3-.5-.3-.7 0-.4.3-.9.8-1.3.6-.4 1.1-.6 1.7-.6.4 0 .7.1 1 .4 1.6 1.5 3.6 2.7 6 3.7s5.1 1.5 8 1.5c3.9 0 7.1-.9 9.7-2.6 2.6-1.7 3.8-4.1 3.8-7.3 0-1.3-.1-2.5-.4-3.4-.3-1-.7-1.8-1.2-2.5s-1.2-1.3-2.2-1.9c-1-.6-2-1.1-3-1.5-1-.4-2.3-.9-4-1.5l-8.7-3c-1.8-.6-3.3-1.2-4.6-1.9-1.3-.7-2.5-1.5-3.6-2.5s-2-2.2-2.5-3.6c-.6-1.4-.9-3-.9-4.8 0-4 1.7-7.2 5-9.6 3.3-2.4 7.5-3.6 12.4-3.6 3.3 0 6.5.6 9.6 1.9 3 1.3 5.3 2.6 6.7 4.1.4.4.6.9.6 1.3s-.2.8-.6 1.2c-.4.3-.8.5-1.3.5s-1-.2-1.4-.6c-1.1-1-2.8-2-5.2-3-2.4-1.1-5.1-1.6-8-1.6-4.1 0-7.4.9-9.8 2.7-2.4 1.8-3.6 4-3.6 6.7 0 2.4.8 4.3 2.4 5.7 1.6 1.4 4.2 2.6 7.7 3.8l8.9 2.9c1.5.5 2.8 1 3.9 1.5s2.2 1.1 3.3 1.9c1.1.8 2 1.6 2.7 2.5.7.9 1.2 2 1.7 3.2.4 1.3.6 2.7.6 4.2 0 4.7-1.7 8.3-5 10.8s-7.9 3.7-13.6 3.7c-6.7 0-12.2-2.2-16.6-6.7zm125.5 4.4c-1.1-1-1.6-2.4-1.6-4V13.9c0-1.9.5-3.4 1.5-4.7s2.4-1.9 4.3-1.9h16c3.1 0 5.8.3 8.1.8 2.3.6 4.4 1.5 6.1 2.7 1.8 1.2 3.1 2.9 4 5 .9 2.1 1.4 4.7 1.4 7.6 0 10.8-6.8 16.2-20.4 16.2h-10.4v15.8c0 1.7-.5 3-1.6 4s-2.3 1.5-3.8 1.5c-1.2.1-2.5-.4-3.6-1.4zM385.2 32c1.8 0 3.3-.1 4.5-.4 1.2-.2 2.3-.7 3.2-1.3 1-.6 1.7-1.5 2.1-2.6s.7-2.5.7-4.2c0-1.7-.2-3-.7-4.1s-1.1-1.9-2.1-2.5c-1-.5-2-.9-3.2-1.1-1.2-.2-2.6-.3-4.3-.3h-9.9V32h9.7zm30.2 27.2c-1-1.2-1.5-2.6-1.5-4.2V13.6c0-1.8.5-3.3 1.4-4.5 1-1.2 2.3-1.8 4.1-1.8h26.5c1.2 0 2.2.4 2.9 1.3.7.8 1.1 1.8 1.1 2.9s-.4 2.1-1.1 2.9c-.7.8-1.7 1.3-2.9 1.3h-21.4v13.7h19.9c1.2 0 2.2.4 2.9 1.2s1.1 1.8 1.1 2.9c0 1.1-.4 2.1-1.1 2.9s-1.7 1.2-2.9 1.2h-19.9v14.9h22.2c1.2 0 2.1.4 2.8 1.3.7.8 1.1 1.8 1.1 2.9s-.4 2.1-1.1 2.9-1.7 1.2-2.8 1.2h-27.6c-1.4.2-2.7-.4-3.7-1.6zm46.5.5c-1-.9-1.4-2-1.4-3.4V13.8c0-2 .5-3.6 1.6-4.7s2.4-1.7 4-1.7c1.1 0 2.3.3 3.5 1s2.2 1.6 3 2.8L497 45V12c0-1.4.5-2.5 1.4-3.4 1-.9 2.1-1.3 3.4-1.3 1.3 0 2.4.4 3.3 1.3 1 .9 1.4 2 1.4 3.4v41.7c0 2.1-.5 3.9-1.6 5.2-1 1.4-2.4 2-4.1 2-1.1 0-2.2-.4-3.5-1.1-1.2-.8-2.3-1.7-3.1-2.9l-24.3-33.6v33c0 1.4-.5 2.5-1.5 3.4-1 .9-2.1 1.3-3.4 1.3-1 0-2.1-.4-3.1-1.3zm58.3 0c-1-.9-1.4-2-1.4-3.4V13.8c0-2 .5-3.6 1.6-4.7s2.4-1.7 4-1.7c1.1 0 2.3.3 3.5 1s2.2 1.6 3 2.8L555.3 45V12c0-1.4.5-2.5 1.4-3.4 1-.9 2.1-1.3 3.4-1.3 1.3 0 2.4.4 3.3 1.3s1.4 2 1.4 3.4v41.7c0 2.1-.5 3.9-1.6 5.2s-2.4 2-4.1 2c-1.1 0-2.2-.4-3.5-1.1-1.2-.8-2.3-1.7-3.1-2.9l-24.3-33.6v33c0 1.4-.5 2.5-1.5 3.4-1 .9-2.1 1.3-3.4 1.3-1 0-2.1-.4-3.1-1.3z" class="logotypelayer0"/>
  <path d="M341.1 63.9H298c-5 0-9-4-9-9V11.8c0-5 4-9 9-9h43.1c5 0 9 4 9 9v43.1c-.1 4.9-4.1 9-9 9z" class="logotypelayer1"/>
  <path d="M350 17.9h-61v-6.2c0-4.9 4-8.9 8.9-8.9h43.3c4.9 0 8.9 4 8.9 8.9l-.1 6.2z" class="logotypelayer2"/>
  <circle cx="302.6" cy="11.1" r="2.8" class="logotypelayer3"/>
  <path d="M302.6 12.4c-1 0-1.9-.9-1.9-1.9V1.9c0-1 .9-1.9 1.9-1.9 1 0 1.9.9 1.9 1.9v8.6c0 1-.8 1.9-1.9 1.9z" class="logotypelayer4"/>
  <circle cx="339.2" cy="11.1" r="2.8" class="logotypelayer3"/>
  <path d="M339.2 12.4c-1 0-1.9-.9-1.9-1.9V1.9c0-1 .9-1.9 1.9-1.9 1 0 1.9.9 1.9 1.9v8.6c0 1-.9 1.9-1.9 1.9z" class="logotypelayer4"/>
  <path d="M332.1 63.9s7.1-2.9 6.2-11.7c8 3.6 11.8 0 11.8 0s-3.8 8.8-18 11.7z" class="logotypelayer5"/>
  <path d="M289 17.9h61" class="logotypelayer6"/>
  <path d="M312.5 55.8c-2-.7-3.8-1.8-5.2-3.2-1.5-1.4-2.6-3.1-3.5-5.2-.8-2.1-1.3-4.4-1.3-6.9 0-2.1.4-4.1 1.1-5.9.7-1.8 1.6-3.4 2.8-4.8 1.2-1.3 2.6-2.5 4.1-3.4s3.2-1.7 5-2.1c1.8-.5 3.5-.7 5.3-.7 1.5 0 3 .2 4.4.5s2.7.9 4 1.6c1.2.7 2.3 1.6 3.2 2.7.9 1.1 1.6 2.3 2.2 3.9.5 1.5.8 3.2.8 5 0 1.7-.3 3.4-.9 5s-1.4 2.9-2.3 4c-1 1.1-2 1.9-3.2 2.6-1.2.6-2.3 1-3.5 1-.8 0-1.6-.2-2.3-.7s-1-1.2-1.1-2.1c-1.4 2-3.4 3-5.8 3-2 0-3.6-.7-4.8-2.1-1.2-1.4-1.8-3.1-1.8-5.1 0-1.4.3-2.9.8-4.3s1.2-2.7 2.1-3.9 2-2.1 3.3-2.8 2.7-1.1 4.2-1.1c1.1 0 2.1.2 3 .7s1.6 1.2 2.1 2.1l.2-.6c.3-.9.9-1.3 1.7-1.3.4 0 .8.1 1.1.4.3.2.4.6.4 1 0 .2 0 .4-.1.8l-2.8 9.2c-.4 1.3-.6 2.2-.6 2.9s.3 1.1 1 1.1c.9 0 1.9-.4 2.8-1.3.9-.9 1.7-2 2.2-3.5.6-1.5.9-3 .9-4.6 0-1.9-.3-3.5-.9-5s-1.4-2.6-2.5-3.5c-1-.9-2.2-1.6-3.5-2-1.3-.5-2.7-.7-4.2-.7-1.4 0-2.9.2-4.3.6s-2.8 1-4 1.8c-1.3.8-2.4 1.8-3.4 2.9-1 1.1-1.8 2.5-2.3 4s-.9 3.2-.9 4.9.2 3.3.7 4.7 1.1 2.7 1.9 3.7 1.8 1.9 2.9 2.6c1.1.7 2.3 1.3 3.6 1.6 1.3.4 2.7.6 4.1.6 2.1 0 4-.3 5.7-.8.2 0 .3-.1.5-.1.4 0 .8.1 1.1.4.3.3.4.6.4 1 0 .7-.4 1.2-1.1 1.4-2.3.7-4.6 1-6.8 1-2.4.1-4.5-.2-6.5-1zm7.9-9.9c.9-.7 1.6-1.5 1.9-2.5l2-7.2-.1-.2c-.1-.2-.2-.4-.5-.6-.2-.2-.5-.5-.8-.7s-.7-.4-1.2-.6c-.5-.2-1-.2-1.6-.2-1.2 0-2.3.4-3.3 1.3s-1.8 2-2.3 3.3-.8 2.6-.8 4c0 2.9 1.1 4.4 3.4 4.4 1.3 0 2.3-.3 3.3-1z" class="logotypelayer2"/>
</svg>
