<?xml version="1.0" encoding="utf-8"?>
<!-- Generator: Adobe Illustrator 21.0.0, SVG Export Plug-In . SVG Version: 6.00 Build 0)  -->
<svg version="1.1" id="Layer_1" xmlns="http://www.w3.org/2000/svg" xmlns:xlink="http://www.w3.org/1999/xlink" x="0px" y="0px"
	 viewBox="0 0 61.1 63.9" style="enable-background:new 0 0 61.1 63.9;" xml:space="preserve">
<style type="text/css">
	.st0{fill:#F1F1F1;}
	.st1{fill:#AA1E22;}
	.st2{fill:#8E1921;}
	.st3{fill:#939598;}
	.st4{fill:#D1D3D4;}
	.st5{fill:none;stroke:#8C1821;stroke-width:3;stroke-miterlimit:10;}
	.st6{enable-background:new    ;}
</style>
<path class="st0" d="M52.1,63.9H9c-5,0-9-4-9-9V11.8c0-5,4-9,9-9h43.1c5,0,9,4,9,9v43.1C61.1,59.8,57,63.9,52.1,63.9z"/>
<path class="st1" d="M61.1,17.9H0v-6.2c0-4.9,4-8.9,8.9-8.9h43.3c4.9,0,8.9,4,8.9,8.9V17.9z"/>
<circle class="st2" cx="13.7" cy="11.1" r="2.8"/>
<path class="st3" d="M13.7,12.4c-1,0-1.9-0.9-1.9-1.9V1.9c0-1,0.9-1.9,1.9-1.9s1.9,0.9,1.9,1.9v8.6C15.6,11.5,14.7,12.4,13.7,12.4z"
	/>
<circle class="st2" cx="50.2" cy="11.1" r="2.8"/>
<path class="st3" d="M50.2,12.4c-1,0-1.9-0.9-1.9-1.9V1.9c0-1,0.9-1.9,1.9-1.9s1.9,0.9,1.9,1.9v8.6C52.1,11.5,51.2,12.4,50.2,12.4z"
	/>
<path class="st4" d="M43.1,63.9c0,0,7.1-2.9,6.2-11.7c8,3.6,11.8,0,11.8,0S57.3,61,43.1,63.9z"/>
<path class="st5" d="M0,17.9h61.1"/>
<g class="st6">
	<path class="st0" d="M18.6,12.1c-0.1-0.1-0.1-0.1-0.1-0.2V7.3c0-0.1,0-0.2,0.1-0.2C18.6,7,18.7,7,18.8,7h2.8c0.1,0,0.2,0,0.2,0.1
		c0,0,0.1,0.1,0.1,0.2c0,0.1,0,0.1-0.1,0.2c0,0-0.1,0.1-0.2,0.1h-2.5v1.8h2.3c0.1,0,0.2,0,0.2,0.1c0,0,0.1,0.1,0.1,0.2
		c0,0.1,0,0.1-0.1,0.2c0,0-0.1,0.1-0.2,0.1h-2.3v1.9h2.5c0.1,0,0.2,0,0.2,0.1c0,0,0.1,0.1,0.1,0.2c0,0.1,0,0.1-0.1,0.2
		c0,0-0.1,0.1-0.2,0.1h-2.8C18.7,12.2,18.6,12.2,18.6,12.1z"/>
	<path class="st0" d="M26.6,7c0,0,0.1,0,0.2,0c0.1,0,0.1,0,0.2,0.1c0.1,0.1,0.1,0.1,0.1,0.2c0,0,0,0.1,0,0.1L25,12
		c0,0.1-0.1,0.1-0.1,0.1s-0.1,0.1-0.2,0.1c-0.1,0-0.1,0-0.2-0.1c-0.1,0-0.1-0.1-0.1-0.1l-2.1-4.7c0,0,0-0.1,0-0.1
		c0-0.1,0-0.1,0.1-0.2c0.1-0.1,0.1-0.1,0.2-0.1c0.1,0,0.2,0.1,0.3,0.2l1.9,4.3l1.9-4.3C26.6,7.1,26.6,7,26.6,7z"/>
	<path class="st0" d="M27.9,12.1c-0.1-0.1-0.1-0.1-0.1-0.2V7.3c0-0.1,0-0.2,0.1-0.2C28,7,28,7,28.1,7h2.8C31,7,31,7,31.1,7.1
		c0,0,0.1,0.1,0.1,0.2c0,0.1,0,0.1-0.1,0.2c0,0-0.1,0.1-0.2,0.1h-2.5v1.8h2.3c0.1,0,0.2,0,0.2,0.1c0,0,0.1,0.1,0.1,0.2
		c0,0.1,0,0.1-0.1,0.2c0,0-0.1,0.1-0.2,0.1h-2.3v1.9h2.5c0.1,0,0.2,0,0.2,0.1c0,0,0.1,0.1,0.1,0.2c0,0.1,0,0.1-0.1,0.2
		c0,0-0.1,0.1-0.2,0.1h-2.8C28,12.2,28,12.2,27.9,12.1z"/>
	<path class="st0" d="M36.2,7c0,0.1,0.1,0.1,0.1,0.2v4.7c0,0.1,0,0.2-0.1,0.2s-0.1,0.1-0.2,0.1c-0.1,0-0.2,0-0.2-0.1L32.7,8v3.9
		c0,0.1,0,0.2-0.1,0.2c-0.1,0.1-0.1,0.1-0.2,0.1c-0.1,0-0.2,0-0.2-0.1s-0.1-0.1-0.1-0.2V7.3c0-0.1,0-0.2,0.1-0.2S32.3,7,32.4,7
		c0.1,0,0.2,0,0.2,0.1l3.1,4.1V7.3c0-0.1,0-0.2,0.1-0.2C35.8,7,35.9,7,36,7C36.1,7,36.2,7,36.2,7z"/>
	<path class="st0" d="M38.9,12.1c-0.1-0.1-0.1-0.1-0.1-0.2V7.5h-1.6c-0.1,0-0.2,0-0.2-0.1c0,0-0.1-0.1-0.1-0.2c0-0.1,0-0.1,0.1-0.2
		c0,0,0.1-0.1,0.2-0.1H41c0.1,0,0.2,0,0.2,0.1s0.1,0.1,0.1,0.2c0,0.1,0,0.1-0.1,0.2c0,0-0.1,0.1-0.2,0.1h-1.6v4.4
		c0,0.1,0,0.2-0.1,0.2c-0.1,0.1-0.1,0.1-0.2,0.1C39,12.2,39,12.2,38.9,12.1z"/>
	<path class="st0" d="M42.4,12.1c-0.3-0.1-0.6-0.3-0.8-0.4c-0.1-0.1-0.1-0.2-0.1-0.3c0-0.1,0-0.1,0.1-0.2c0-0.1,0.1-0.1,0.1-0.1
		c0.1,0,0.1,0,0.2,0.1c0.5,0.4,1,0.5,1.6,0.5c0.4,0,0.7-0.1,1-0.2s0.3-0.4,0.3-0.7c0-0.2-0.1-0.3-0.2-0.4c-0.1-0.1-0.2-0.2-0.4-0.3
		c-0.2-0.1-0.4-0.1-0.7-0.2c-0.4-0.1-0.7-0.2-1-0.3c-0.3-0.1-0.5-0.3-0.6-0.4c-0.2-0.2-0.2-0.4-0.2-0.8c0-0.3,0.1-0.6,0.2-0.8
		c0.2-0.2,0.4-0.4,0.7-0.5s0.6-0.2,1-0.2c0.3,0,0.7,0.1,1,0.2s0.5,0.3,0.7,0.5c0.1,0.1,0.1,0.2,0.1,0.3c0,0.1,0,0.1-0.1,0.2
		c0,0.1-0.1,0.1-0.1,0.1S45,8,44.9,8c-0.2-0.2-0.5-0.3-0.7-0.4c-0.2-0.1-0.5-0.1-0.7-0.1c-0.4,0-0.7,0.1-1,0.3
		c-0.2,0.2-0.3,0.4-0.3,0.7c0,0.3,0.1,0.5,0.3,0.6c0.2,0.1,0.5,0.2,0.9,0.3c0.4,0.1,0.8,0.2,1.1,0.3c0.3,0.1,0.5,0.2,0.6,0.4
		c0.2,0.2,0.3,0.4,0.3,0.7c0,0.3-0.1,0.5-0.2,0.8c-0.2,0.2-0.4,0.4-0.7,0.5s-0.6,0.2-1,0.2C43.1,12.2,42.7,12.2,42.4,12.1z"/>
</g>
<path d="M19.6,55.3c-0.1-0.1-0.1-0.2,0-0.4l2-4.8c0.1-0.1,0.1-0.2,0.3-0.3c0.1-0.1,0.2,0,0.4,0l1.7,0.7c0.7,0.3,1.1,0.6,1.3,1
	c0.2,0.4,0.2,0.9,0,1.5c-0.1,0.3-0.3,0.5-0.5,0.7S24.4,54,24.2,54h-0.8c-0.3,0-0.6-0.1-0.9-0.3l-1.2-0.5l-0.8,1.9
	c-0.1,0.1-0.1,0.2-0.3,0.3h-0.4C19.8,55.5,19.7,55.4,19.6,55.3z M22.8,53.1c0.4,0.2,0.8,0.2,1,0.2c0.3-0.1,0.5-0.3,0.6-0.6
	s0.2-0.6,0-0.8c-0.1-0.2-0.4-0.4-0.8-0.6l-1.2-0.5l-0.8,1.9C21.6,52.7,22.8,53.1,22.8,53.1z M25.4,57.4c-0.1-0.1-0.1-0.2-0.1-0.3
	l1-5.1c0-0.1,0.1-0.2,0.2-0.3s0.2-0.1,0.3-0.1l3.1,0.6c0.1,0,0.2,0.1,0.2,0.2s0.1,0.2,0,0.3c0,0.1-0.1,0.2-0.1,0.2
	C29.9,53,29.8,53,29.7,53l-2.6-0.5l-0.4,1.8l2.4,0.5c0.1,0,0.2,0.1,0.3,0.2c0.1,0.1,0.1,0.2,0,0.3c0,0.1-0.1,0.2-0.1,0.2
	c-0.1,0.1-0.2,0.1-0.3,0.1L26.7,55l-0.4,2l2.7,0.5c0.1,0,0.2,0.1,0.3,0.2c0,0.1,0.1,0.2,0,0.3c0,0.1-0.1,0.2-0.1,0.2
	c-0.1,0.1-0.2,0.1-0.3,0.1l-3.2-0.6C25.5,57.6,25.4,57.5,25.4,57.4z M31.6,58.3c-0.1-0.1-0.1-0.2-0.2-0.3L31,53c0-0.2,0-0.3,0.1-0.5
	c0.1-0.1,0.2-0.2,0.4-0.2c0.1,0,0.2,0,0.3,0.1c0.1,0,0.2,0.1,0.3,0.2l3.4,4.1l-0.4-4.3c0-0.1,0-0.2,0.1-0.3s0.2-0.1,0.3-0.1
	s0.2,0,0.3,0.1s0.1,0.2,0.2,0.3l0.5,5.1c0,0.2,0,0.3-0.1,0.5c-0.1,0.1-0.2,0.2-0.4,0.2c-0.1,0-0.2,0-0.3-0.1c-0.1,0-0.2-0.1-0.3-0.2
	l-3.4-4l0.4,4.2c0,0.1,0,0.2-0.1,0.3s-0.2,0.1-0.3,0.1C31.8,58.4,31.7,58.4,31.6,58.3z M39.2,57.1c-0.1,0-0.2-0.1-0.3-0.2l-2.2-4.6
	c-0.1-0.2-0.1-0.3,0-0.5c0-0.1,0.1-0.2,0.3-0.3c0.1,0,0.2-0.1,0.3-0.1s0.2,0,0.4,0.1l4.6,2.7l-1.8-3.9c-0.1-0.1-0.1-0.2,0-0.3
	c0-0.1,0.1-0.2,0.2-0.2s0.2-0.1,0.3,0c0.1,0,0.2,0.1,0.3,0.2l2.2,4.6c0.1,0.2,0.1,0.3,0,0.5l-0.3,0.3c-0.1,0-0.2,0.1-0.3,0.1
	s-0.2,0-0.4-0.1L38,52.7l1.8,3.8c0.1,0.1,0.1,0.2,0,0.3c0,0.1-0.1,0.2-0.2,0.2C39.5,57.2,39.3,57.2,39.2,57.1z"/>
<path class="st1" d="M26.7,47c-1.5-0.6-2.8-1.4-4-2.4c-1.1-1-2-2.4-2.6-3.9c-0.6-1.6-1-3.3-1-5.2c0-1.6,0.3-3.1,0.8-4.5
	s1.2-2.6,2.1-3.6s1.9-1.9,3.1-2.6s2.4-1.3,3.8-1.6c1.3-0.4,2.7-0.5,4-0.5c1.1,0,2.3,0.1,3.3,0.4c1.1,0.3,2.1,0.7,3,1.2
	c0.9,0.6,1.8,1.2,2.4,2c0.7,0.8,1.2,1.8,1.6,2.9c0.4,1.2,0.6,2.4,0.6,3.8c0,1.3-0.2,2.6-0.7,3.8s-1.1,2.2-1.8,3s-1.5,1.5-2.4,2
	s-1.8,0.7-2.7,0.7c-0.6,0-1.2-0.2-1.7-0.5s-0.8-0.9-0.8-1.6c-1.1,1.5-2.5,2.2-4.4,2.2c-1.5,0-2.7-0.5-3.6-1.6s-1.4-2.3-1.4-3.9
	c0-1.1,0.2-2.2,0.6-3.3s0.9-2.1,1.6-2.9c0.7-0.9,1.5-1.6,2.5-2.1s2.1-0.8,3.2-0.8c0.8,0,1.6,0.2,2.3,0.5c0.7,0.4,1.2,0.9,1.6,1.6
	l0.1-0.4c0.2-0.6,0.6-1,1.3-1c0.3,0,0.6,0.1,0.8,0.3c0.2,0.2,0.3,0.4,0.3,0.8c0,0.1,0,0.3-0.1,0.6l-2.1,7c-0.3,1-0.4,1.7-0.4,2.2
	c0,0.6,0.3,0.8,0.8,0.8c0.7,0,1.4-0.3,2.1-1c0.7-0.7,1.3-1.5,1.7-2.6s0.7-2.3,0.7-3.5c0-1.4-0.2-2.7-0.7-3.8c-0.5-1.1-1.1-2-1.9-2.7
	c-0.8-0.7-1.7-1.2-2.7-1.5s-2.1-0.5-3.2-0.5s-2.2,0.2-3.3,0.5s-2.1,0.8-3.1,1.4s-1.8,1.4-2.6,2.2c-0.7,0.8-1.3,1.9-1.8,3
	c-0.4,1.2-0.6,2.4-0.6,3.7s0.2,2.5,0.5,3.6c0.4,1.1,0.8,2,1.4,2.8s1.3,1.4,2.2,2c0.8,0.5,1.8,1,2.7,1.2c1,0.3,2,0.4,3.1,0.4
	c1.6,0,3-0.2,4.3-0.6H36c0.3,0,0.6,0.1,0.8,0.3s0.3,0.5,0.3,0.8c0,0.5-0.3,0.9-0.8,1.1c-1.8,0.5-3.5,0.7-5.1,0.7
	C29.9,47.9,28.2,47.6,26.7,47z M32.7,39.5c0.7-0.5,1.2-1.1,1.4-1.9l1.5-5.4L35.5,32c-0.1-0.1-0.2-0.3-0.3-0.5
	c-0.2-0.2-0.4-0.3-0.6-0.5c-0.2-0.2-0.5-0.3-0.9-0.5c-0.4-0.1-0.8-0.2-1.2-0.2c-0.9,0-1.8,0.3-2.5,1c-0.8,0.7-1.3,1.5-1.7,2.5
	c-0.4,1-0.6,2-0.6,3c0,2.2,0.9,3.3,2.6,3.3C31.2,40.3,32,40,32.7,39.5z"/>
</svg>
