<svg xmlns="http://www.w3.org/2000/svg" id="Layer_1" width="61.1" height="63.9">
  <style>
    .st0{fill:#F1F1F1;} .st1{fill:#AA1E22;} .st2{fill:#8E1921;} .st3{fill:#939598;} .st4{fill:#D1D3D4;} .st5{fill:none;stroke:#8C1821;stroke-width:3;stroke-miterlimit:10;}
  </style>
  <path d="M52.1 63.9H9c-5 0-9-4-9-9V11.8c0-5 4-9 9-9h43.1c5 0 9 4 9 9v43.1c-.1 4.9-4.1 9-9 9z" class="st0"/>
  <path d="M61 17.9H0v-6.2c0-4.9 4-8.9 8.9-8.9h43.3c4.9 0 8.9 4 8.9 8.9v6.2z" class="st1"/>
  <circle cx="13.6" cy="11.1" r="2.8" class="st2"/>
  <path d="M13.6 12.4c-1 0-1.9-.9-1.9-1.9V1.9c0-1 .9-1.9 1.9-1.9 1 0 1.9.9 1.9 1.9v8.6c0 1-.8 1.9-1.9 1.9z" class="st3"/>
  <circle cx="50.2" cy="11.1" r="2.8" class="st2"/>
  <path d="M50.2 12.4c-1 0-1.9-.9-1.9-1.9V1.9c0-1 .9-1.9 1.9-1.9 1 0 1.9.9 1.9 1.9v8.6c0 1-.9 1.9-1.9 1.9z" class="st3"/>
  <path d="M43.1 63.9s7.1-2.9 6.2-11.7c8 3.6 11.8 0 11.8 0s-3.8 8.8-18 11.7z" class="st4"/>
  <path d="M0 17.9h61" class="st5"/>
  <path d="M23.5 55.8c-2-.7-3.8-1.8-5.2-3.2-1.5-1.4-2.6-3.1-3.5-5.2-.8-2.1-1.3-4.4-1.3-6.9 0-2.1.4-4.1 1.1-5.9.7-1.8 1.6-3.4 2.8-4.8 1.2-1.3 2.6-2.5 4.1-3.4s3.2-1.7 5-2.1c1.8-.5 3.5-.7 5.3-.7 1.5 0 3 .2 4.4.5s2.7.9 4 1.6c1.2.7 2.3 1.6 3.2 2.7.9 1.1 1.6 2.3 2.2 3.9.5 1.5.8 3.2.8 5 0 1.7-.3 3.4-.9 5-.6 1.6-1.4 2.9-2.3 4-1 1.1-2 1.9-3.2 2.6-1.2.6-2.3 1-3.5 1-.8 0-1.6-.2-2.3-.7S33 47.9 33 47c-1.4 2-3.4 3-5.8 3-2 0-3.6-.7-4.8-2.1-1.2-1.4-1.8-3.1-1.8-5.1 0-1.4.3-2.9.8-4.3s1.2-2.7 2.1-3.9 2-2.1 3.3-2.8c1.3-.7 2.7-1.1 4.2-1.1 1.1 0 2.1.2 3 .7s1.6 1.2 2.1 2.1l.2-.6c.3-.9.9-1.3 1.7-1.3.4 0 .8.1 1.1.4.3.2.4.6.4 1 0 .2 0 .4-.1.8L36.6 43c-.4 1.3-.6 2.2-.6 2.9 0 .7.3 1.1 1 1.1.9 0 1.9-.4 2.8-1.3.9-.9 1.7-2 2.2-3.5.6-1.5.9-3 .9-4.6 0-1.9-.3-3.5-.9-5-.6-1.5-1.4-2.6-2.5-3.5-1-.9-2.2-1.6-3.5-2-1.3-.5-2.7-.7-4.2-.7-1.4 0-2.9.2-4.3.6s-2.8 1-4 1.8c-1.3.8-2.4 1.8-3.4 2.9-1 1.1-1.8 2.5-2.3 4s-.8 3.3-.8 5c0 1.7.2 3.3.7 4.7.5 1.4 1.1 2.7 1.9 3.7.8 1 1.8 1.9 2.9 2.6 1.1.7 2.3 1.3 3.6 1.6 1.3.4 2.7.6 4.1.6 2.1 0 4-.3 5.7-.8.2 0 .3-.1.5-.1.4 0 .8.1 1.1.4.3.3.4.6.4 1 0 .7-.4 1.2-1.1 1.4-2.3.7-4.6 1-6.8 1-2.4.1-4.5-.2-6.5-1zm7.9-9.9c.9-.7 1.6-1.5 1.9-2.5l2-7.2-.2-.2c-.1-.2-.2-.4-.5-.6-.2-.2-.5-.5-.8-.7-.3-.2-.7-.4-1.2-.6-.5-.2-1-.2-1.6-.2-1.2 0-2.3.4-3.3 1.3s-1.8 2-2.3 3.3-.8 2.6-.8 4c0 2.9 1.1 4.4 3.4 4.4 1.4 0 2.4-.3 3.4-1z" class="st1"/>
</svg>
