<svg xmlns="http://www.w3.org/2000/svg" viewBox="0 0 16 16"><title>website</title><path d="M11,16h4.1a.9.9,0,0,0,.9-.9V.9a.9.9,0,0,0-.9-.9H.9A.9.9,0,0,0,0,.9V15.1a.9.9,0,0,0,.9.9H8.6" style="fill:#bdc3c7"/><g style="isolation:isolate"><path d="M3.65,9.29l-.71-2-.71,2q-.13.37-.43.37a.4.4,0,0,1-.39-.33L.64,7.05a.31.31,0,0,1,0-.1.24.24,0,0,1,0-.06l0-.06,0,0,0,0,.05,0,.06,0H.9a.28.28,0,0,1,.16,0,.25.25,0,0,1,.1.14L1.85,9l.7-2a.4.4,0,0,1,.78,0L4,9l.69-2.14a.26.26,0,0,1,.1-.14.27.27,0,0,1,.16,0H5l.06,0,.05,0,0,0,0,0,0,.06a.22.22,0,0,1,0,.06.3.3,0,0,1,0,.1L4.47,9.32q-.11.33-.39.33T3.65,9.29Z" style="fill:#fff"/><path d="M8.71,9.29,8,7.26l-.71,2q-.13.37-.43.37a.4.4,0,0,1-.39-.33L5.7,7.05a.31.31,0,0,1,0-.1.24.24,0,0,1,0-.06l0-.06,0,0,0,0,.05,0,.06,0H6a.28.28,0,0,1,.16,0,.25.25,0,0,1,.1.14L6.91,9l.7-2a.4.4,0,0,1,.78,0l.7,2,.69-2.14a.26.26,0,0,1,.1-.14.27.27,0,0,1,.16,0h.06l.06,0,.05,0,0,0,0,0,0,.06a.22.22,0,0,1,0,.06.31.31,0,0,1,0,.1L9.53,9.32c-.07.22-.2.33-.39.33S8.79,9.53,8.71,9.29Z" style="fill:#fff"/><path d="M13.77,9.29l-.71-2-.71,2q-.13.37-.43.37a.4.4,0,0,1-.39-.33l-.77-2.27a.31.31,0,0,1,0-.1.26.26,0,0,1,0-.06l0-.06,0,0,0,0,.05,0,.06,0H11a.28.28,0,0,1,.16,0,.25.25,0,0,1,.1.14L12,9l.7-2a.4.4,0,0,1,.78,0l.7,2,.69-2.14a.26.26,0,0,1,.1-.14.27.27,0,0,1,.16,0h.06l.06,0,.05,0,0,0,0,0,0,.06a.22.22,0,0,1,0,.06.31.31,0,0,1,0,.1l-.77,2.27c-.07.22-.2.33-.39.33S13.86,9.53,13.77,9.29Z" style="fill:#fff"/></g></svg>